<?xml version="1.0" standalone="no"?><!DOCTYPE svg PUBLIC "-//W3C//DTD SVG 1.1//EN" "http://www.w3.org/Graphics/SVG/1.1/DTD/svg11.dtd"><svg t="1540973351193" class="icon" style="" viewBox="0 0 1024 1024" version="1.1" xmlns="http://www.w3.org/2000/svg" p-id="1872" xmlns:xlink="http://www.w3.org/1999/xlink" width="200" height="200"><defs><style type="text/css"></style></defs><path d="M512.546 86.050c0 0-12.561-0.546-24.030 7.1-12.015 8.192-462.029 380.109-462.029 380.109s-32.768 25.668 2.731 70.997 74.82 3.823 74.82 3.823l407.962-359.356 414.515 364.817c0 0 36.591 30.583 70.451-11.469 33.86-42.598-3.277-72.090-3.277-72.090l-121.242-99.942v-175.309h-164.932v39.868l-168.209-139.81c0 0-10.923-9.83-26.761-8.738z" p-id="1873"></path><path d="M512.546 241.152l-410.146 357.171v300.919l333.141 0.546v-246.306l152.917 1.638v244.122l333.141 0.546v-300.919z" p-id="1874"></path></svg>