<?xml version="1.0" standalone="no"?><!DOCTYPE svg PUBLIC "-//W3C//DTD SVG 1.1//EN" "http://www.w3.org/Graphics/SVG/1.1/DTD/svg11.dtd"><svg t="1556366009186" class="icon" style="" viewBox="0 0 1024 1024" version="1.1" xmlns="http://www.w3.org/2000/svg" p-id="3833" xmlns:xlink="http://www.w3.org/1999/xlink" width="200" height="200"><defs><style type="text/css"></style></defs><path d="M423.765333 480.426667h-337.92c-32.426667 0-58.88-26.453333-58.88-58.88V83.626667c0-32.426667 26.453333-58.88 58.88-58.88h337.92c32.426667 0 58.88 26.453333 58.88 58.88v337.92c0 32.426667-26.282667 58.88-58.88 58.88z m-320-76.8h302.08v-302.08h-302.08v302.08z" p-id="3834"></path><path d="M254.805333 252.586667m-55.466666 0a55.466667 55.466667 0 1 0 110.933333 0 55.466667 55.466667 0 1 0-110.933333 0Z" p-id="3835"></path><path d="M423.765333 999.253333h-337.92c-32.426667 0-58.88-26.453333-58.88-58.88V602.453333c0-32.426667 26.453333-58.88 58.88-58.88h337.92c32.426667 0 58.88 26.453333 58.88 58.88v337.92c0 32.426667-26.282667 58.88-58.88 58.88z m-320-76.8h302.08v-302.08h-302.08v302.08zM579.754667 999.253333c-21.162667 0-38.4-17.237333-38.4-38.4V602.453333c0-32.426667 26.453333-58.88 58.88-58.88h168.96c21.162667 0 38.4 17.237333 38.4 38.4v151.04h112.64v-131.072c0-21.162667 17.237333-38.4 38.4-38.4s38.4 17.237333 38.4 38.4V771.413333c0 21.162667-17.237333 38.4-38.4 38.4h-189.44c-21.162667 0-38.4-17.237333-38.4-38.4v-151.04h-112.64V960.853333c0 21.162667-17.237333 38.4-38.4 38.4z" p-id="3836"></path><path d="M794.794667 999.253333H715.093333c-6.997333 0-12.8-5.802667-12.8-12.8v-51.2c0-6.997333 5.802667-12.8 12.8-12.8h79.701334c6.997333 0 12.8 5.802667 12.8 12.8v51.2c0 6.997333-5.802667 12.8-12.8 12.8zM972.970667 999.253333h-77.824c-7.338667 0-13.312-5.973333-13.312-13.312v-50.176c0-7.338667 5.973333-13.312 13.312-13.312h77.824c7.338667 0 13.312 5.973333 13.312 13.312v50.176c0 7.338667-5.973333 13.312-13.312 13.312z" p-id="3837"></path><path d="M254.805333 771.413333m-55.466666 0a55.466667 55.466667 0 1 0 110.933333 0 55.466667 55.466667 0 1 0-110.933333 0Z" p-id="3838"></path><path d="M938.154667 480.426667h-337.92c-32.426667 0-58.88-26.453333-58.88-58.88V83.626667c0-32.426667 26.453333-58.88 58.88-58.88h337.92c32.426667 0 58.88 26.453333 58.88 58.88v337.92c0 32.426667-26.453333 58.88-58.88 58.88z m-320-76.8h302.08v-302.08h-302.08v302.08z" p-id="3839"></path><path d="M769.194667 252.586667m-55.466667 0a55.466667 55.466667 0 1 0 110.933333 0 55.466667 55.466667 0 1 0-110.933333 0Z" p-id="3840"></path><path d="M579.754667 581.973333h189.44v148.992h-189.44z" p-id="3841"></path></svg>